#!OML:ASF F:\VICON\USERDATA\INSTALL\rory3\rory3.ASF
:FULLY-SPECIFIED
:DEGREES
79
root 0.3931698785168277 17.526133749145753 36.50677160868989 -2.8793058094859223 1.589787628446338 -0.32724183285412245
lfemur 14.730272834998466 -5.724079793356513 -23.930324127890376
ltibia 24.91570815967363
lfoot -11.141666066576562 -3.2654310011344605
ltoes -25.055050351242247
rfemur -27.662525002171243 1.6974742100044027 23.77830948198973
rtibia 29.745895215225737
rfoot -4.92472302009433 -8.126974847419326
rtoes -0.7686353488186204
lowerback 10.195877047021414 -1.121531602385301 -3.109696243237635
upperback 0.3294156359699298 -1.8635275482969382 1.9165276441166208
thorax -5.50759316208096 -0.7881887426937542 4.683968531279239
lowerneck -17.135236000127257 -2.781902744717642 -2.5624166012251335
upperneck 20.40539061279758 -3.5718446857795527 2.4227555276922885
head 9.309233835007834 -1.6640257203329274 0.7218992504690371
lclavicle 2.9911140337092915e-16 5.5314561560945036e-17
lhumerus -22.684509877408495 -2.247801533837015 81.35770534556453
lradius 32.35550622519084
lwrist 11.834087005842317
lhand -32.25966867037322 13.462997734564743
lfingers 7.125020000000001
lthumb -5.30662946759461 43.98361013365066
rclavicle 2.991114032139634e-16 5.531456144872109e-17
rhumerus -32.712768971675885 -20.79485868369498 -75.29384182310241
rradius 28.263180843480168
rwrist 3.2103067690770564
rhand -18.26076142497669 22.924800717185803
rfingers 7.125020000000001
rthumb 7.865396937925793 -7.229777196475926
80
root 0.33114557309424697 17.59507655505548 36.869863828306066 -3.282071517340882 1.954973386379418 -1.3303099675066283
lfemur 12.453352289899708 -6.1521824555786555 -22.64157696421477
ltibia 31.829917981792036
lfoot -6.096626993329132 -6.282051928878378
ltoes -25.466881493871032
rfemur -26.47832148456084 1.791838337855303 25.340563317624834
rtibia 31.898979544091187
rfoot -3.875289808205487 -6.538330794752539
rtoes 4.5433058364212755
lowerback 9.96721279525813 -1.1324912205595512 -1.9550018382079342
upperback 0.2661651344900399 -1.7902142731829322 2.1106069899175903
thorax -5.525681645100799 -0.7930341274650128 4.17049250684799
lowerneck -17.07854630587597 -2.724332285832989 -2.4790764028969074
upperneck 20.495518933994475 -3.469928760468435 2.240371817048363
head 9.349395691651198 -1.6395559797273966 0.6677407565565001
lclavicle 2.9911140337546875e-16 5.5314561562675766e-17
lhumerus -24.093057000957657 -1.3234561410574117 81.74182645865957
lradius 32.086163860527826
lwrist 11.76834339260788
lhand -32.3890622335092 13.408028467184657
lfingers 7.125020000000001
lthumb -5.414430116908583 43.92914355511773
rclavicle 2.991114032160221e-16 5.531456144868282e-17
rhumerus -33.03207044758959 -21.327297143438393 -74.90506909756293
rradius 27.716470367570967
rwrist 3.2705785560252147
rhand -18.227416390088692 22.791393734618897
rfingers 7.125020000000001
rthumb 7.893959697368226 -7.341860832092559
81
root 0.25915025293640787 17.65851252260374 37.241094532524706 -3.771673584564626 1.6158556744463417 -2.5570943318691985
lfemur 8.21198299661755 -5.0945493307102385 -20.57151745572219
ltibia 41.171001242250256
lfoot 1.6776812501177956 -9.822977876474367
ltoes -24.423312028690564
rfemur -24.219086592954916 2.3879487007570295 27.183053034959137
rtibia 33.21560449107883
rfoot -5.8216232415474805 -6.454252499661743
rtoes 8.770042416098418
lowerback 9.934884921997552 -0.9484865022312343 -0.7797688054393612
upperback 0.24147908562839254 -1.42139856881564 2.339750135966585
thorax -5.571841457158244 -0.640655990775265 3.6971846611868173
lowerneck -16.98651517414623 -2.731070202163406 -2.395962217510138
upperneck 20.57503103552315 -3.5036783973270804 2.216295090157995
head 9.387230032354855 -1.6492572136274124 0.6509744700818465
lclavicle 2.991114033765809e-16 5.5314561562112957e-17
lhumerus -25.804004954589438 0.07791350309654765 82.08333277804186
lradius 31.756142931116756
lwrist 11.393203828452734
lhand -30.855516688405565 16.75121656069058
lfingers 7.125020000000001
lthumb -4.1508208881831585 46.843243665170384
rclavicle 2.9911140321234937e-16 5.531456144467974e-17
rhumerus -33.198866925372485 -21.607104050509843 -74.70635528551696
rradius 27.276557958751017
rwrist 3.6574054500151005
rhand -18.21467356844818 22.65113454853235
rfingers 7.125020000000001
rthumb 7.902957671865977 -7.42293560731016
82
root 0.18954324353453023 17.765705568323543 37.04296726381099 -4.091951404715741 1.670059079739973 -3.7991974215539592
lfemur 3.383318960511855 -4.17815000646878 -17.943964692760204
ltibia 50.64012294282452
lfoot 7.674506609902296 -12.865486222271553
ltoes -7.750968450902782
rfemur -20.946657391633924 3.131841048063975 29.048362386334986
rtibia 32.81752709235968
rfoot -7.163579534486679 -7.014577725792348
rtoes 9.044926423102002
lowerback 9.952604590953028 -0.7538794646277395 0.3018005303917649
upperback 0.2619514289940497 -1.043192554535246 2.496312682405994
thorax -5.628682961214809 -0.4775431405830811 3.0593050406009152
lowerneck -16.82398722399488 -2.7464339133070923 -2.292543042273757
upperneck 20.49284679236612 -3.511565268455885 2.082634823387635
head 9.342139073187607 -1.6498070223345125 0.5831494642250084
lclavicle 2.9911140337307677e-16 5.5314561558215676e-17
lhumerus -27.37146654990685 0.4163107376876183 82.83618646509605
lradius 31.31905899073423
lwrist 10.868021628508357
lhand -29.964845321840365 18.59863031792961
lfingers 7.125020000000001
lthumb -3.349379148604377 48.53688030674362
rclavicle 2.991114032064145e-16 5.531456143903645e-17
rhumerus -33.147941276525636 -21.503048076989533 -74.98716106419977
rradius 27.26963226921747
rwrist 3.693494579239946
rhand -18.116031412258927 22.5988938774893
rfingers 7.125020000000001
rthumb 7.994340465770232 -7.424346749549738
83
root 0.13823984251259447 17.83721096167969 37.42975247273836 -4.305420005563871 1.57265927691767 -4.74383385922402
lfemur -1.1773592635593548 -3.3903679507347744 -15.591158070758354
ltibia 58.322833478271605
lfoot 11.456978034092359 -15.012562233150387
ltoes 2.3913403510179325
rfemur -17.303034327144946 3.582943007381065 30.810571848252042
rtibia 31.93944819620112
rfoot -8.849931879662845 -7.362555082677975
rtoes 8.26074381531734
lowerback 10.031999600080512 -0.47703686854000504 1.2656995601706866
upperback 0.28065197840672285 -0.5373504921513175 2.5682626015776666
thorax -5.664792502122689 -0.2608762696623468 2.354901464513311
lowerneck -16.64668563075777 -2.7941307212808324 -2.2419709068829246
upperneck 20.435276163681017 -3.640050296819787 2.2006315192955554
head 9.301760014059555 -1.6854738602206278 0.6055284764019779
lclavicle 2.9911140337243065e-16 5.5314561556722454e-17
lhumerus -28.73966164079921 0.5067450246059835 83.34486992752157
lradius 30.431090797229643
lwrist 9.835879807723192
lhand -29.775536662159027 18.80911518031281
lfingers 7.125020000000001
lthumb -3.18913046075004 48.61983520842496
rclavicle 2.991114032030015e-16 5.531456143553223e-17
rhumerus -32.69360007518784 -21.28615711078734 -75.6111400147184
rradius 27.24824659760353
rwrist 3.5015158781869133
rhand -17.979209410268936 22.696480106659177
rfingers 7.125020000000001
rthumb 8.175339381658931 -7.2082370399918245
84
root 0.1018570429048864 17.896499819372178 37.225511081632234 -4.360580452877494 0.9292144231223526 -5.751746194164574
lfemur -6.45590270575185 -2.1216500658162776 -13.550489834873163
ltibia 64.2050194262227
lfoot 8.867089382918962 -14.599220187560164
ltoes -1.5322095308038923
rfemur -13.230197017977012 3.885800047664262 32.48016217450753
rtibia 30.43670312493262
rfoot -10.453107744973003 -7.657400929348631
rtoes 7.43777706195671
lowerback 10.079772868597505 -0.08171185622046453 2.3266595986213447
upperback 0.3781890275074098 0.15226268774713464 2.6013831449086284
thorax -5.580074366563286 0.06563164847763725 1.5523491975726729
lowerneck -16.506210122115107 -2.84474567477143 -2.2127504885563583
upperneck 20.374340622940473 -3.7337679270996027 2.250674962121859
head 9.259669527245673 -1.7031805384969843 0.594088581458257
lclavicle 2.991114033717667e-16 5.5314561555432587e-17
lhumerus -29.980472500500593 0.5695043802057964 83.71634683025131
lradius 29.497765922869107
lwrist 8.533460625029068
lhand -29.227355418098625 19.90410397126715
lfingers 7.125020000000001
lthumb -2.5546303696724806 49.90609489661826
rclavicle 2.9911140320230737e-16 5.531456143421491e-17
rhumerus -32.41803205141801 -20.814827710441115 -76.30935564635136
rradius 27.448358229486946
rwrist 3.041178223542766
rhand -17.9564940718345 22.72515553077455
rfingers 7.125020000000001
rthumb 8.236449029538186 -7.092943074591146
85
root 0.09870781244839577 17.92322722891363 37.743876411254945 -4.159792287610561 0.2189935636419421 -6.2464371571068344
lfemur -11.296011801853645 -0.714153019313718 -12.427823648002107
ltibia 67.30200131343972
lfoot 3.607294422381101 -12.574192531892887
ltoes -7.214444690928194
rfemur -9.958359699448401 3.8722350736730307 33.537734706330056
rtibia 29.16822606263843
rfoot -12.20586576066853 -7.646618501253156
rtoes 6.779830067183444
lowerback 10.09698233625844 0.31548966201507933 3.1171964394914884
upperback 0.4330522295228228 0.8331642515146749 2.5337061982263203
thorax -5.502955771734305 0.39660080265476233 0.7197681025095024
lowerneck -16.42068173251062 -2.903549719436377 -2.171249826717229
upperneck 20.31812361732284 -3.852715038113338 2.3275020979258283
head 9.214406942117861 -1.7365877050084506 0.5991225169400827
lclavicle 2.991114033656681e-16 5.5314561550288825e-17
lhumerus -31.206429742875944 0.6264882548357793 83.87449717745321
lradius 28.602590393875
lwrist 7.352135923450593
lhand -29.0163826067077 19.991710103240955
lfingers 7.125020000000001
lthumb -2.3881129892309882 49.98399094523354
rclavicle 2.9911140320396516e-16 5.531456143458302e-17
rhumerus -32.00377271569898 -20.323898722595473 -76.91438020220346
rradius 27.68551051677971
rwrist 2.3865238739591867
rhand -18.052039569172706 22.428469460394307
rfingers 7.125020000000001
rthumb 8.12303521968001 -7.434870957808237
